<?xml version="1.0" encoding="UTF-8"?>
<svg id="Layer_1" data-name="Layer 1" xmlns="http://www.w3.org/2000/svg" viewBox="0 0 654.41 327.76">
  <defs>
    <style>
      .cls-1 {
        fill: #f58220;
      }

      .cls-2 {
        fill: #fff;
      }
    </style>
  </defs>
  <path class="cls-1" d="M497.27,266.05h5.61l-10.58-27.66h-3.31l-10.58,27.66h5.61l1.55-4.43h10.13l1.55,4.43ZM487.34,256.59l3.31-9.44,3.31,9.44h-6.61Z"/>
  <path class="cls-1" d="M505.64,243.59v-5.21h5.21v5.21h-5.21ZM505.64,266.05v-19.75h5.21v19.75h-5.21Z"/>
  <path class="cls-1" d="M444.26,0l.5,4.45c1.93,17.2,15.5,30.78,32.71,32.71l4.45.5-4.45.5c-17.2,1.93-30.78,15.5-32.71,32.71l-.5,4.45-.5-4.45c-1.93-17.2-15.5-30.78-32.71-32.71l-4.45-.5,4.45-.5c17.2-1.93,30.78-15.5,32.71-32.71l.5-4.45Z"/>
  <path class="cls-1" d="M495.16,37.65h0c1.04,9.31,8.39,16.66,17.7,17.7h0c-9.31,1.04-16.66,8.39-17.7,17.7h0s0,0,0,0c-1.04-9.31-8.39-16.66-17.7-17.7h0,0c9.31-1.04,16.66-8.39,17.7-17.7h0Z"/>
  <path class="cls-1" d="M429.01,75.31h0c.84,7.47,6.74,13.37,14.21,14.21h0,0c-7.47.84-13.37,6.74-14.21,14.21h0c-.84-7.47-6.74-13.37-14.21-14.21h0s0,0,0,0c7.47-.84,13.37-6.74,14.21-14.21h0Z"/>
  <path class="cls-2" d="M630.33,236.19c-15.68,16.17-39.87,24.89-62.18,24.98l-36.96.16c.6,15.29-6.67,29.62-16.88,40.54-7.69,8.84-16.58,15.93-27.07,21.17-9.34,4.67-17.28,4.85-27.51,4.68v-139s.11-102.59.11-102.59l69-.04,41.23-.05c22.4.27,47.15,8.9,62.44,25.81,21.07,23.32,26.17,57.95,18.57,87.64-1.77,6.94-4.52,13.2-7.76,19.4-3.43,6.58-7.88,12.01-13,17.3ZM522.46,266.51l.05-47.9,41.85-.1c6.05-.01,11.55-.87,17.34-2.42,6.89-2.07,13.29-5.38,18.15-10.84,5.16-5.79,8.62-12.95,9.91-20.6,2.92-17.29-.07-38.08-15.5-48.46-6.37-4.28-13.43-6.4-20.98-7.26-2.45-.28-4.73-.61-7.27-.61h-43.33s-.03-32.32-.03-32.32c0-1.06-.83-1.68-1.92-1.77l-52.6.06-.05,6.91v20.8s.07,23.55.07,23.55l.11,21.83.06,151.78c6.28.44,10.97-1.31,14.39-6.54,5.86-8.95,3.05-17.62,4.45-24.87.77-3.97,3.84-7.2,7.91-7.27l15.21-.27c2.2-.04,4.53-1.09,6.55-1.87,3.7-2.81,5.64-6.81,5.64-11.83Z"/>
  <path class="cls-1" d="M588.53,170.64c-7.36.23-14.14.2-21.27.05-2.36-.05-4.12-2.82-4.13-5.02v-18.89c-.01-2.97,2.02-5.38,5.04-5.39l20.59-.04c2.62,0,3.85,3.24,3.85,5.38l-.02,18.56c0,2.06-1.43,5.27-4.07,5.35ZM586.37,157.92c.27-1.7.26-2.76-.21-4l-16.32-.06c-.61,1.19-.62,2.75-.12,3.97l16.64.09Z"/>
  <path class="cls-1" d="M588.52,205.95l-19.94.1c-2.81.01-5.38-1.63-5.39-4.8l-.04-20.13c0-1.93,1.64-4.62,3.71-4.62h21.9c2.3,0,3.89,2.21,3.96,4.5.21,6.7.17,13.18,0,19.96-.06,2.17-1.55,4.97-4.18,4.99ZM586.02,188.83c.7-.74.65-3.44-.25-3.49l-15.49-.16c-.61,1.01-.64,2.7-.06,3.63l15.8.02ZM586.27,196.99c.41-1.24.35-2.48-.27-3.67l-15.76-.04c-.88.42-.97,3.21-.09,3.46l16.12.24Z"/>
  <path class="cls-1" d="M553.28,206.04l-20.79-.09c-2.44-.01-3.85-2.94-3.86-5.05l-.1-19.35c-.01-2.67,2-5.06,4.8-5.1,7.2-.11,14.16-.19,21.4.11,1.86.08,3.25,3.08,3.25,4.65l-.02,19.97c0,2.64-1.77,4.87-4.68,4.86ZM547.56,198.12c1.1-.8,2.06-1.98,1.99-2.85l-3.87-4.07,4.21-4.85c.56-.64-1.67-2.57-2.32-1.95l-4.39,4.21-4.9-4.46c-1.01-.05-2.68,1.83-2.29,2.67l4.45,4.39-4.11,4.54c-.6.66,1.35,2.72,2.25,2.46l4.38-4.17,4.61,4.08Z"/>
  <path class="cls-1" d="M553.67,170.69l-21.16.02c-2.37-.78-4.02-2.92-3.99-5.5l.19-19.17c.03-2.9,2.43-4.75,5.07-4.74l20.05.06c2.16,0,4.12,2.66,4.11,4.68l-.08,19.21c0,2.26-1.24,5.42-4.19,5.43ZM544.62,163.61l.39-5.76c2.04-.03,4.05.05,5.97-.27.9-.15.95-2.98.26-3.45l-6.44-.21-.19-6.11c-1.05-.43-2.74-.39-3.48.28l-.09,5.65-6.55.36c-.37,1.09-.37,2.96.38,3.68l6,.3.28,5.41c.05,1.01,3.41,1.17,3.48.13Z"/>
  <g>
    <path class="cls-2" d="M0,152.73c5.56-.95,13.37-1.66,24.38-1.66s19.05,2.13,24.38,6.39c5.09,4.02,8.52,10.65,8.52,18.46s-2.6,14.44-7.34,18.93c-6.15,5.8-15.26,8.4-25.91,8.4-2.37,0-4.5-.12-6.15-.35v28.52H4.39C1.97,231.42,0,229.46,0,227.03v-74.3ZM17.87,188.94c1.54.35,3.43.47,6.03.47,9.59,0,15.5-4.85,15.5-13.02,0-7.34-5.09-11.71-14.08-11.71-3.67,0-6.15.35-7.45.71v23.55Z"/>
    <path class="cls-2" d="M67.1,192.61c0-8.52-.24-14.08-.47-19.05h15.5l.59,10.65h.47c2.96-8.4,10.06-11.95,15.62-11.95,1.66,0,2.49,0,3.79.24v16.92c-1.3-.24-2.84-.47-4.85-.47-6.63,0-11.12,3.55-12.31,9.11-.24,1.18-.35,2.6-.35,4.02v29.35h-17.99v-38.81Z"/>
    <path class="cls-2" d="M124.96,208.23c.59,7.45,7.93,11,16.33,11,6.15,0,11.12-.83,15.97-2.37l2.37,12.19c-5.92,2.37-13.13,3.55-20.94,3.55-19.64,0-30.88-11.36-30.88-29.46,0-14.67,9.11-30.88,29.23-30.88,18.7,0,25.8,14.55,25.8,28.87,0,3.08-.35,5.8-.59,7.1h-37.27ZM146.14,195.92c0-4.38-1.89-11.71-10.18-11.71-7.57,0-10.65,6.86-11.12,11.71h21.3Z"/>
    <path class="cls-2" d="M173.48,215.69c3.31,2.01,10.18,4.38,15.5,4.38s7.69-1.89,7.69-4.85-1.77-4.38-8.52-6.63c-11.95-4.02-16.57-10.53-16.45-17.39,0-10.77,9.23-18.93,23.55-18.93,6.75,0,12.78,1.54,16.33,3.31l-3.2,12.42c-2.6-1.42-7.57-3.31-12.54-3.31-4.38,0-6.86,1.77-6.86,4.73,0,2.72,2.25,4.14,9.35,6.63,11,3.79,15.62,9.35,15.74,17.87,0,10.77-8.52,18.7-25.09,18.7-7.57,0-14.32-1.66-18.7-4.02l3.2-12.9Z"/>
    <path class="cls-2" d="M224.84,215.69c3.31,2.01,10.18,4.38,15.5,4.38s7.69-1.89,7.69-4.85-1.77-4.38-8.52-6.63c-11.95-4.02-16.57-10.53-16.45-17.39,0-10.77,9.23-18.93,23.55-18.93,6.75,0,12.78,1.54,16.33,3.31l-3.2,12.42c-2.6-1.42-7.57-3.31-12.54-3.31-4.38,0-6.86,1.77-6.86,4.73,0,2.72,2.25,4.14,9.35,6.63,11,3.79,15.62,9.35,15.74,17.87,0,10.77-8.52,18.7-25.09,18.7-7.57,0-14.32-1.66-18.7-4.02l3.2-12.9Z"/>
    <path class="cls-1" d="M335.48,229.17c-3.31,1.66-10.77,3.43-20.47,3.43-27.57,0-41.77-17.16-41.77-39.88,0-27.22,19.41-42.36,43.55-42.36,9.35,0,16.45,1.89,19.64,3.55l-3.67,14.32c-3.67-1.54-8.76-2.96-15.15-2.96-14.32,0-25.44,8.64-25.44,26.39,0,15.97,9.47,26.03,25.56,26.03,5.44,0,11.48-1.18,15.03-2.6l2.72,14.08Z"/>
    <path class="cls-1" d="M378.43,231.42l-1.06-5.8h-.36c-3.79,4.61-9.7,7.1-16.57,7.1-11.72,0-18.7-8.52-18.7-17.75,0-15.03,13.49-22.25,33.96-22.13v-.83c0-3.08-1.66-7.45-10.53-7.45-5.92,0-12.19,2.01-15.97,4.38l-3.31-11.6c4.02-2.25,11.95-5.09,22.48-5.09,19.29,0,25.44,11.36,25.44,24.97v20.12c0,5.56.24,10.89.83,14.08h-16.21ZM376.31,204.09c-9.47-.12-16.8,2.13-16.8,9.11,0,4.62,3.08,6.86,7.1,6.86,4.5,0,8.16-2.96,9.35-6.63.24-.95.35-2.01.35-3.08v-6.27Z"/>
    <path class="cls-1" d="M408.02,147.41h17.99v79.62c0,2.42-1.97,4.39-4.39,4.39h-13.6v-84.01Z"/>
  </g>
  <g>
    <path class="cls-2" d="M15.13,265.32c-1.39.7-3.16,1.04-5.33,1.04-4.31,0-6.19-1.34-8.9-3.54l2.91-2.13c1.68,1.34,3.73,2.68,6.03,2.68,3.24,0,4.43-1.31,4.43-3.17,0-1.59-.49-2.32-2.09-2.87-.45-.15-2.79-.73-3.45-.82-2.3-.33-4.18-.82-5.54-2.13-.98-.95-1.44-2.2-1.44-3.63,0-2.07,1.07-3.81,3.08-4.88,1.35-.73,3.04-1.1,5.04-1.1,3.45,0,6.15,1.22,7.79,3.51l-3.2,2.01c-1.11-1.25-2.67-2.41-4.76-2.41-2.58,0-3.9,1.16-3.9,2.9,0,1.62.82,2.32,2.91,2.77.94.24,3.65.64,4.35.82,1.8.46,3.04,1.1,3.86,1.98.98,1.07,1.35,2.29,1.35,3.84,0,2.35-1.07,4.05-3.16,5.12Z"/>
    <path class="cls-2" d="M39.87,266.18v-13.14h-.12l-5.29,9.7h-2.71l-5.25-9.7h-.12v13.14h-4.02v-21.22h3.9l6.89,12.53.08-.06,6.81-12.47h3.86v21.22h-4.02Z"/>
    <path class="cls-2" d="M62.46,266.18l-1.72-4.69h-8.41l-1.72,4.69h-4.1l8.29-21.22h3.49l8.33,21.22h-4.14ZM56.56,250.08h-.12l-3.16,8.69h6.48l-3.2-8.69Z"/>
    <path class="cls-2" d="M82.6,266.18l-5.04-9.12h-4.18v9.12h-4.02v-21.22h9.02c4.76,0,7.67,2.26,7.67,6.07,0,2.59-1.44,4.57-4.55,5.58l5.5,9.57h-4.39ZM77.97,247.7h-4.59v6.71h4.63c2.91,0,4.14-1.25,4.14-3.41s-1.23-3.29-4.18-3.29Z"/>
    <path class="cls-2" d="M98.1,247.7v18.48h-4.06v-18.48h-6.32v-2.74h16.69v2.74h-6.32Z"/>
    <path class="cls-1" d="M130.34,255.81c-1.31,1.22-3.2,2.04-6.15,2.04h-4.51v8.32h-4.02v-21.22h8.2c2.83,0,5.17.61,6.77,2.32.98,1.07,1.48,2.23,1.48,4.18,0,1.71-.49,3.14-1.76,4.36ZM124.03,247.79h-4.35v7.23h4.39c1.48,0,2.42-.34,3.04-.85.82-.7,1.11-1.68,1.11-2.74,0-2.23-1.07-3.63-4.18-3.63Z"/>
    <path class="cls-1" d="M148.84,266.18l-5.04-9.12h-4.18v9.12h-4.02v-21.22h9.02c4.76,0,7.67,2.26,7.67,6.07,0,2.59-1.44,4.57-4.55,5.58l5.5,9.57h-4.39ZM144.2,247.7h-4.59v6.71h4.63c2.91,0,4.14-1.25,4.14-3.41s-1.23-3.29-4.18-3.29Z"/>
    <path class="cls-1" d="M156.55,266.18v-21.22h4.06v21.22h-4.06Z"/>
    <path class="cls-1" d="M179.72,266.18l-9.88-13.99h-.08v13.99h-4.02v-21.22h3.86l9.8,13.96h.12v-13.96h4.02v21.22h-3.81Z"/>
    <path class="cls-1" d="M196.41,247.7v18.48h-4.06v-18.48h-6.32v-2.74h16.69v2.74h-6.32Z"/>
    <path class="cls-2" d="M231.48,266.18v-13.14h-.12l-5.29,9.7h-2.71l-5.25-9.7h-.12v13.14h-4.02v-21.22h3.9l6.89,12.53.08-.06,6.81-12.47h3.86v21.22h-4.02Z"/>
    <path class="cls-2" d="M254.08,266.18l-1.72-4.69h-8.41l-1.72,4.69h-4.1l8.29-21.22h3.49l8.33,21.22h-4.14ZM248.17,250.08h-.12l-3.16,8.69h6.48l-3.2-8.69Z"/>
    <path class="cls-2" d="M274.87,266.18l-9.88-13.99h-.08v13.99h-4.02v-21.22h3.86l9.8,13.96h.12v-13.96h4.02v21.22h-3.81Z"/>
    <path class="cls-2" d="M297.35,266.18l-1.72-4.69h-8.41l-1.72,4.69h-4.1l8.29-21.22h3.49l8.33,21.22h-4.14ZM291.44,250.08h-.12l-3.16,8.69h6.48l-3.2-8.69Z"/>
    <path class="cls-2" d="M318.43,264.32c-1.6,1.31-3.65,2.07-6.28,2.07-3.16,0-6.4-1.31-7.71-3.93-.62-1.13-.7-2.68-.74-4.27-.04-.33-.04-.73-.04-1.16v-2.87c0-.46,0-.85.04-1.19.04-1.59.12-3.11.74-4.24,1.31-2.62,4.55-3.96,7.71-3.96,2.13,0,4.06.58,5.54,1.59,1.27.88,2.17,2.1,2.5,3.57.12.15.16.82.21,1.04h-4.14c-.12-.21-.21-.82-.33-1.04-.45-1.19-1.93-2.13-3.86-2.13-1.52,0-2.67.58-3.32,1.4-.9,1.07-1.03,2.04-1.03,6.4s.16,5.37,1.03,6.43c.7.88,1.8,1.34,3.4,1.34,1.03,0,1.97-.24,2.75-.7.98-.61,1.64-1.59,1.64-2.71v-2.68h-4.55v-2.74h8.57v5.52c0,1.74-.86,3.17-2.13,4.27Z"/>
    <path class="cls-2" d="M325.15,266.18v-21.22h15.09v2.84h-11.07v6.28h9.56v2.74h-9.56v6.43h11.07v2.93h-15.09Z"/>
    <path class="cls-2" d="M361.37,266.18v-13.14h-.12l-5.29,9.7h-2.71l-5.25-9.7h-.12v13.14h-4.02v-21.22h3.9l6.89,12.53.08-.06,6.81-12.47h3.86v21.22h-4.02Z"/>
    <path class="cls-2" d="M370.35,266.18v-21.22h15.09v2.84h-11.07v6.28h9.56v2.74h-9.56v6.43h11.07v2.93h-15.09Z"/>
    <path class="cls-2" d="M402.96,266.18l-9.88-13.99h-.08v13.99h-4.02v-21.22h3.86l9.8,13.96h.12v-13.96h4.02v21.22h-3.81Z"/>
    <path class="cls-2" d="M419.65,247.7v18.48h-4.06v-18.48h-6.32v-2.74h16.69v2.74h-6.32Z"/>
  </g>
</svg>